<svg width="166.922509765625px" height="192.80498046875px" xmlns="http://www.w3.org/2000/svg" viewBox="166.5387451171875 -21.402490234374994 166.922509765625 192.80498046875" style="background: none;" preserveAspectRatio="xMidYMid"><defs><filter id="editing-hover" x="-100%" y="-100%" width="300%" height="300%"><feFlood flood-color="#000000" result="flood"></feFlood><feComposite operator="in" in2="SourceAlpha" in="flood" result="shadow"></feComposite><feOffset dx="2.8" dy="-2.7" in="SourceGraphic" result="offset-1"></feOffset><feOffset dx="-2.8" dy="2.7" in="shadow" result="offset-2"></feOffset><feMerge><feMergeNode in="offset-2"></feMergeNode><feMergeNode in="offset-1"></feMergeNode></feMerge></filter></defs><g filter="url(#editing-hover)"><g transform="translate(195.07999992370605, 103.29999923706055)"><path d="M17.02-56.60L17.02-5.37L46.32-5.37L46.32 0L9.10 0L9.10-56.60L17.02-56.60ZM92.82-8.19L92.82-8.19L92.82-23.02L92.82-23.02Q92.82-24.75 92.32-25.30L92.32-25.30L92.32-25.30Q91.82-25.84 90.00-25.84L90.00-25.84L63.52-25.84L63.52-25.84Q56.33-25.84 56.33-33.03L56.33-33.03L56.33-49.41L56.33-49.41Q56.33-56.60 63.52-56.60L63.52-56.60L93.28-56.60L93.28-56.60Q100.46-56.60 100.46-49.41L100.46-49.41L100.46-40.40L92.46-40.40L92.46-48.41L92.46-48.41Q92.46-50.23 91.96-50.73L91.96-50.73L91.96-50.73Q91.45-51.23 89.63-51.23L89.63-51.23L67.16-51.23L67.16-51.23Q65.43-51.23 64.88-50.73L64.88-50.73L64.88-50.73Q64.34-50.23 64.34-48.41L64.34-48.41L64.34-34.03L64.34-34.03Q64.34-32.21 64.88-31.71L64.88-31.71L64.88-31.71Q65.43-31.21 67.16-31.21L67.16-31.21L93.55-31.21L93.55-31.21Q100.74-31.21 100.74-24.02L100.74-24.02L100.74-7.19L100.74-7.19Q100.74 0 93.55 0L93.55 0L63.70 0L63.70 0Q56.51 0 56.51-7.19L56.51-7.19L56.51-16.20L64.52-16.20L64.52-8.19L64.52-8.19Q64.52-6.37 65.06-5.87L65.06-5.87L65.06-5.87Q65.61-5.37 67.34-5.37L67.34-5.37L90.00-5.37L90.00-5.37Q91.82-5.37 92.32-5.87L92.32-5.87L92.32-5.87Q92.82-6.37 92.82-8.19Z" fill="#70e000"></path></g></g><style>text {
  font-size: 64px;
  font-family: Arial Black;
  dominant-baseline: central;
  text-anchor: middle;
}</style></svg>